<svg width="18" height="19" viewBox="0 0 18 19" fill="none" xmlns="http://www.w3.org/2000/svg">
    <g clip-path="url(#clip0)">
        <path d="M14.3086 18.5H3.69141C1.65596 18.5 0 16.844 0 14.8086V4.19141C0 2.15596 1.65596 0.5 3.69141 0.5H14.3086C16.344 0.5 18 2.15596 18 4.19141V14.8086C18 16.844 16.344 18.5 14.3086 18.5Z" fill="#6272A4"/>
        <path d="M14.3086 0.5H9V18.5H14.3086C16.344 18.5 18 16.844 18 14.8086V4.19141C18 2.15596 16.344 0.5 14.3086 0.5Z" fill="#6272A4"/>
        <path d="M5.54237 14.3697C5.37977 14.6513 5.08372 14.8089 4.77972 14.8089C4.6307 14.8089 4.47981 14.7711 4.34175 14.6914C3.92205 14.4491 3.77773 13.9105 4.02003 13.4908L4.1929 13.1914H6.22264L5.54237 14.3697Z" fill="#282A36"/>
        <path d="M3.88477 12.4883C3.40014 12.4883 3.00586 12.094 3.00586 11.6094C3.00586 11.1247 3.40014 10.7305 3.88477 10.7305H5.61368L7.98511 6.62302L7.34242 5.50983C7.10012 5.09013 7.2444 4.55154 7.6641 4.30921H7.66413C8.08383 4.06691 8.62242 4.21126 8.86472 4.63092L9 4.86524L9.13528 4.63096C9.37768 4.21123 9.91628 4.06695 10.3359 4.30924C10.5392 4.42663 10.6846 4.61616 10.7454 4.84292C10.8062 5.06967 10.7749 5.30656 10.6575 5.50987L7.64343 10.7305H9.54464L10.5595 12.4883H3.88477Z" fill="#282A36"/>
        <path d="M14.1153 12.4883H13.4013L13.98 13.4908C14.2224 13.9105 14.0781 14.4491 13.6584 14.6914C13.5229 14.7696 13.3726 14.8096 13.2203 14.8096C13.144 14.8096 13.0672 14.7995 12.9914 14.7792C12.7646 14.7184 12.5751 14.573 12.4577 14.3697L9.40601 9.08398L10.4209 7.32617L12.3864 10.7305H14.1153C14.6 10.7305 14.9942 11.1248 14.9942 11.6094C14.9942 12.0941 14.6 12.4883 14.1153 12.4883Z" fill="#282A36"/>
        <path d="M9 10.7305V12.4883H10.5595L9.54468 10.7305H9Z" fill="#282A36"/>
        <path d="M10.7454 4.8429C10.6846 4.61615 10.5392 4.42658 10.3359 4.30923C9.91624 4.06693 9.37765 4.21118 9.13528 4.63095L9 4.86523V8.38085L10.6575 5.50985C10.7749 5.30654 10.8062 5.0697 10.7454 4.8429Z" fill="#282A36"/>
    </g>
    <defs>
        <clipPath id="clip0">
            <rect y="0.5" width="18" height="18" fill="white"/>
        </clipPath>
    </defs>
</svg>
