<svg width="30" height="30" viewBox="0 0 26 26" fill="none" xmlns="http://www.w3.org/2000/svg">
    <path d="M13 0.541664C5.8175 0.541664 0 6.26167 0 13.3163C0 18.9616 3.7245 23.7488 8.88875 25.4367C9.53875 25.5569 9.77708 25.1615 9.77708 24.8224C9.77708 24.5191 9.76625 23.7153 9.76083 22.6503C6.14467 23.4206 5.382 20.9365 5.382 20.9365C4.7905 19.4621 3.93575 19.0678 3.93575 19.0678C2.75817 18.2758 4.02675 18.2921 4.02675 18.2921C5.33217 18.3809 6.01792 19.6083 6.01792 19.6083C7.17708 21.5616 9.061 20.9972 9.80417 20.6711C9.92117 19.8445 10.2559 19.2823 10.6275 18.9627C7.74042 18.6431 4.706 17.5446 4.706 12.6501C4.706 11.2558 5.20975 10.1162 6.04392 9.22242C5.89767 8.89958 5.45892 7.60067 6.15767 5.84133C6.15767 5.84133 7.24642 5.499 9.73267 7.15108C10.7727 6.86725 11.8777 6.72642 12.9827 6.71992C14.0877 6.72642 15.1927 6.86725 16.2327 7.15108C18.7027 5.499 19.7914 5.84133 19.7914 5.84133C20.4902 7.60067 20.0514 8.89958 19.9214 9.22242C20.7502 10.1162 21.2539 11.2558 21.2539 12.6501C21.2539 17.5576 18.2152 18.6377 15.3227 18.9518C15.7777 19.3353 16.2002 20.1186 16.2002 21.3157C16.2002 23.0252 16.1839 24.3988 16.1839 24.8138C16.1839 25.1485 16.4114 25.5483 17.0777 25.4204C22.2788 23.7434 26 18.9529 26 13.3163C26 6.26167 20.1793 0.541664 13 0.541664Z" fill="#6272A4"/>
</svg>
