<svg width="18" height="18" viewBox="0 0 18 18" fill="none" xmlns="http://www.w3.org/2000/svg">
    <g clip-path="url(#clip0)">
        <path d="M10.3567 9.0016L1.31756 17.7057C0.894269 17.4164 0.642953 16.9352 0.647397 16.4226V1.58061C0.642953 1.06794 0.894269 0.586767 1.31756 0.297485L10.3567 9.0016Z" fill="#6272A4" stroke="#282A36" stroke-width="0.340909"/>
        <path d="M13.5196 5.96128L10.3567 9.00159L1.3175 0.297479C1.35156 0.271083 1.38704 0.246526 1.42374 0.223923C1.90147 -0.0656265 2.49819 -0.0749742 2.98477 0.199404L13.5196 5.96128Z" fill="#6272A4" stroke="#282A36" stroke-width="0.340909"/>
        <path d="M17.3527 9.00162C17.3586 9.58037 17.0441 10.115 16.5354 10.391L13.5196 12.0419L10.3567 9.00162L13.5196 5.9613L16.5354 7.61221C17.0441 7.88828 17.3586 8.42286 17.3527 9.00162Z" fill="#6272A4" stroke="#282A36" stroke-width="0.340909"/>
        <path d="M13.5196 12.0419L2.98477 17.8038C2.49712 18.0739 1.90266 18.0646 1.42374 17.7793C1.38704 17.7567 1.35156 17.7321 1.3175 17.7057L10.3567 9.00159L13.5196 12.0419Z" fill="#6272A4" stroke="#282A36" stroke-width="0.340909"/>
    </g>
    <defs>
        <clipPath id="clip0">
            <rect width="18" height="18" fill="white"/>
        </clipPath>
    </defs>
</svg>
