<svg width="33" height="23" viewBox="0 0 33 23" fill="none" xmlns="http://www.w3.org/2000/svg">
    <path d="M2.35192 1.11708V1.49296H2.10134V1.11708H2.35192ZM1.85076 1.11708V1.49296H1.60017V1.11708H1.85076ZM1.34959 1.11708V1.49296H1.09901V1.11708H1.34959ZM0.848427 1.11708V1.49296H0.597845V1.11708H0.848427ZM0.347262 1.11708V1.49296H0.0966797V1.11708H0.347262ZM2.85309 1.11708V1.49296H2.6025V1.11708H2.85309ZM2.85309 1.86883V2.24471H2.6025V1.86883H2.85309ZM2.35192 1.86883V2.24471H2.10134V1.86883H2.35192ZM1.85076 1.86883V2.24471H1.60017V1.86883H1.85076ZM1.34959 1.86883V2.24471H1.09901V1.86883H1.34959ZM0.848427 1.86883V2.24471H0.597845V1.86883H0.848427ZM0.347262 1.86883V2.24471H0.0966797V1.86883H0.347262ZM2.85309 2.62058V2.99645H2.6025V2.62058H2.85309ZM2.35192 2.62058V2.99645H2.10134V2.62058H2.35192ZM1.85076 2.62058V2.99645H1.60017V2.62058H1.85076ZM0.347262 2.62058V2.99645H0.0966797V2.62058H0.347262ZM1.34959 2.62058V2.99645H1.09901V2.62058H1.34959ZM0.848427 2.62058V2.99645H0.597845V2.62058H0.848427ZM0.848427 3.37233V3.7482H0.597845V3.37233H0.848427ZM0.347262 3.37233V3.7482H0.0966797V3.37233H0.347262ZM1.34959 3.37233V3.7482H1.09901V3.37233H1.34959ZM1.85076 3.37233V3.7482H1.60017V3.37233H1.85076ZM2.35192 3.37233V3.7482H2.10134V3.37233H2.35192ZM2.85309 3.37233V3.7482H2.6025V3.37233H2.85309ZM2.35192 4.12407V4.49995H2.10134V4.12407H2.35192ZM0.347262 4.12407V4.49995H0.0966797V4.12407H0.347262ZM0.848427 4.12407V4.49995H0.597845V4.12407H0.848427ZM2.85309 4.12407V4.49995H2.6025V4.12407H2.85309ZM1.34959 4.12407V4.49995H1.09901V4.12407H1.34959ZM1.85076 4.12407V4.49995H1.60017V4.12407H1.85076ZM0.848427 4.87582V5.2517H0.597845V4.87582H0.848427ZM1.34959 4.87582V5.2517H1.09901V4.87582H1.34959ZM2.85309 4.87582V5.2517H2.6025V4.87582H2.85309ZM0.347262 4.87582V5.2517H0.0966797V4.87582H0.347262ZM1.85076 4.87582V5.2517H1.60017V4.87582H1.85076ZM2.35192 4.87582V5.2517H2.10134V4.87582H2.35192ZM2.85309 5.62757V6.00344H2.6025V5.62757H2.85309ZM2.35192 5.62757V6.00344H2.10134V5.62757H2.35192ZM1.85076 5.62757V6.00344H1.60017V5.62757H1.85076ZM1.34959 5.62757V6.00344H1.09901V5.62757H1.34959ZM0.848427 5.62757V6.00344H0.597845V5.62757H0.848427ZM0.347262 5.62757V6.00344H0.0966797V5.62757H0.347262ZM2.85309 6.37932V6.75519H2.6025V6.37932H2.85309ZM2.35192 6.37932V6.75519H2.10134V6.37932H2.35192ZM1.85076 6.37932V6.75519H1.60017V6.37932H1.85076ZM0.347262 6.37932V6.75519H0.0966797V6.37932H0.347262ZM1.34959 6.37932V6.75519H1.09901V6.37932H1.34959ZM0.848427 6.37932V6.75519H0.597845V6.37932H0.848427ZM0.848427 7.13106V7.50694H0.597845V7.13106H0.848427ZM1.34959 7.13106V7.50694H1.09901V7.13106H1.34959ZM0.347262 7.13106V7.50694H0.0966797V7.13106H0.347262ZM1.85076 7.13106V7.50694H1.60017V7.13106H1.85076ZM2.35192 7.13106V7.50694H2.10134V7.13106H2.35192ZM2.85309 7.13106V7.50694H2.6025V7.13106H2.85309ZM2.35192 7.88281V8.25868H2.10134V7.88281H2.35192ZM1.34959 7.88281V8.25868H1.09901V7.88281H1.34959ZM0.848427 7.88281V8.25868H0.597845V7.88281H0.848427ZM2.85309 7.88281V8.25868H2.6025V7.88281H2.85309ZM1.85076 7.88281V8.25868H1.60017V7.88281H1.85076ZM0.347262 7.88281V8.25868H0.0966797V7.88281H0.347262Z" fill="#FFB86C"/>
    <path d="M5.85812 0.741211V8.25868H2.85113V0.741211H5.85812Z" fill="#FFB86C"/>
    <path d="M8.36199 1.11708V1.49296H8.1114V1.11708H8.36199ZM7.86082 1.11708V1.49296H7.61024V1.11708H7.86082ZM7.35966 1.11708V1.49296H7.10907V1.11708H7.35966ZM6.85849 1.11708V1.49296H6.60791V1.11708H6.85849ZM6.35733 1.11708V1.49296H6.10674V1.11708H6.35733ZM8.86315 1.11708V1.49296H8.61257V1.11708H8.86315ZM8.86315 1.86883V2.24471H8.61257V1.86883H8.86315ZM8.36199 1.86883V2.24471H8.1114V1.86883H8.36199ZM7.86082 1.86883V2.24471H7.61024V1.86883H7.86082ZM7.35966 1.86883V2.24471H7.10907V1.86883H7.35966ZM6.85849 1.86883V2.24471H6.60791V1.86883H6.85849ZM6.35733 1.86883V2.24471H6.10674V1.86883H6.35733ZM8.86315 2.62058V2.99645H8.61257V2.62058H8.86315ZM8.36199 2.62058V2.99645H8.1114V2.62058H8.36199ZM7.86082 2.62058V2.99645H7.61024V2.62058H7.86082ZM6.35733 2.62058V2.99645H6.10674V2.62058H6.35733ZM7.35966 2.62058V2.99645H7.10907V2.62058H7.35966ZM6.85849 2.62058V2.99645H6.60791V2.62058H6.85849ZM6.85849 3.37233V3.7482H6.60791V3.37233H6.85849ZM6.35733 3.37233V3.7482H6.10674V3.37233H6.35733ZM7.35966 3.37233V3.7482H7.10907V3.37233H7.35966ZM7.86082 3.37233V3.7482H7.61024V3.37233H7.86082ZM8.36199 3.37233V3.7482H8.1114V3.37233H8.36199ZM8.86315 3.37233V3.7482H8.61257V3.37233H8.86315ZM8.36199 4.12407V4.49995H8.1114V4.12407H8.36199ZM6.35733 4.12407V4.49995H6.10674V4.12407H6.35733ZM6.85849 4.12407V4.49995H6.60791V4.12407H6.85849ZM8.86315 4.12407V4.49995H8.61257V4.12407H8.86315ZM7.35966 4.12407V4.49995H7.10907V4.12407H7.35966ZM7.86082 4.12407V4.49995H7.61024V4.12407H7.86082ZM6.85849 4.87582V5.2517H6.60791V4.87582H6.85849ZM7.35966 4.87582V5.2517H7.10907V4.87582H7.35966ZM8.86315 4.87582V5.2517H8.61257V4.87582H8.86315ZM6.35733 4.87582V5.2517H6.10674V4.87582H6.35733ZM7.86082 4.87582V5.2517H7.61024V4.87582H7.86082ZM8.36199 4.87582V5.2517H8.1114V4.87582H8.36199ZM8.86315 5.62757V6.00344H8.61257V5.62757H8.86315ZM8.36199 5.62757V6.00344H8.1114V5.62757H8.36199ZM7.86082 5.62757V6.00344H7.61024V5.62757H7.86082ZM7.35966 5.62757V6.00344H7.10907V5.62757H7.35966ZM6.85849 5.62757V6.00344H6.60791V5.62757H6.85849ZM6.35733 5.62757V6.00344H6.10674V5.62757H6.35733ZM8.86315 6.37932V6.75519H8.61257V6.37932H8.86315ZM8.36199 6.37932V6.75519H8.1114V6.37932H8.36199ZM7.86082 6.37932V6.75519H7.61024V6.37932H7.86082ZM6.35733 6.37932V6.75519H6.10674V6.37932H6.35733ZM7.35966 6.37932V6.75519H7.10907V6.37932H7.35966ZM6.85849 6.37932V6.75519H6.60791V6.37932H6.85849ZM6.85849 7.13106V7.50694H6.60791V7.13106H6.85849ZM7.35966 7.13106V7.50694H7.10907V7.13106H7.35966ZM6.35733 7.13106V7.50694H6.10674V7.13106H6.35733ZM7.86082 7.13106V7.50694H7.61024V7.13106H7.86082ZM8.36199 7.13106V7.50694H8.1114V7.13106H8.36199ZM8.86315 7.13106V7.50694H8.61257V7.13106H8.86315ZM8.36199 7.88281V8.25868H8.1114V7.88281H8.36199ZM7.35966 7.88281V8.25868H7.10907V7.88281H7.35966ZM6.85849 7.88281V8.25868H6.60791V7.88281H6.85849ZM8.86315 7.88281V8.25868H8.61257V7.88281H8.86315ZM7.86082 7.88281V8.25868H7.61024V7.88281H7.86082ZM6.35733 7.88281V8.25868H6.10674V7.88281H6.35733Z" fill="#FFB86C"/>
    <path d="M11.8682 0.741211V8.25868H8.86119V0.741211H11.8682Z" fill="#FFB86C"/>
    <path d="M14.372 1.11708V1.49296H14.1215V1.11708H14.372ZM13.8709 1.11708V1.49296H13.6203V1.11708H13.8709ZM13.3697 1.11708V1.49296H13.1191V1.11708H13.3697ZM12.8686 1.11708V1.49296H12.618V1.11708H12.8686ZM12.3674 1.11708V1.49296H12.1168V1.11708H12.3674ZM14.8732 1.11708V1.49296H14.6226V1.11708H14.8732ZM14.8732 1.86883V2.24471H14.6226V1.86883H14.8732ZM14.372 1.86883V2.24471H14.1215V1.86883H14.372ZM13.8709 1.86883V2.24471H13.6203V1.86883H13.8709ZM13.3697 1.86883V2.24471H13.1191V1.86883H13.3697ZM12.8686 1.86883V2.24471H12.618V1.86883H12.8686ZM12.3674 1.86883V2.24471H12.1168V1.86883H12.3674ZM14.8732 2.62058V2.99645H14.6226V2.62058H14.8732ZM14.372 2.62058V2.99645H14.1215V2.62058H14.372ZM13.8709 2.62058V2.99645H13.6203V2.62058H13.8709ZM12.3674 2.62058V2.99645H12.1168V2.62058H12.3674ZM13.3697 2.62058V2.99645H13.1191V2.62058H13.3697ZM12.8686 2.62058V2.99645H12.618V2.62058H12.8686ZM12.8686 3.37233V3.7482H12.618V3.37233H12.8686ZM12.3674 3.37233V3.7482H12.1168V3.37233H12.3674ZM13.3697 3.37233V3.7482H13.1191V3.37233H13.3697ZM13.8709 3.37233V3.7482H13.6203V3.37233H13.8709ZM14.372 3.37233V3.7482H14.1215V3.37233H14.372ZM14.8732 3.37233V3.7482H14.6226V3.37233H14.8732ZM14.372 4.12407V4.49995H14.1215V4.12407H14.372ZM12.3674 4.12407V4.49995H12.1168V4.12407H12.3674ZM12.8686 4.12407V4.49995H12.618V4.12407H12.8686ZM14.8732 4.12407V4.49995H14.6226V4.12407H14.8732ZM13.3697 4.12407V4.49995H13.1191V4.12407H13.3697ZM13.8709 4.12407V4.49995H13.6203V4.12407H13.8709ZM12.8686 4.87582V5.2517H12.618V4.87582H12.8686ZM13.3697 4.87582V5.2517H13.1191V4.87582H13.3697ZM14.8732 4.87582V5.2517H14.6226V4.87582H14.8732ZM12.3674 4.87582V5.2517H12.1168V4.87582H12.3674ZM13.8709 4.87582V5.2517H13.6203V4.87582H13.8709ZM14.372 4.87582V5.2517H14.1215V4.87582H14.372ZM14.8732 5.62757V6.00344H14.6226V5.62757H14.8732ZM14.372 5.62757V6.00344H14.1215V5.62757H14.372ZM13.8709 5.62757V6.00344H13.6203V5.62757H13.8709ZM13.3697 5.62757V6.00344H13.1191V5.62757H13.3697ZM12.8686 5.62757V6.00344H12.618V5.62757H12.8686ZM12.3674 5.62757V6.00344H12.1168V5.62757H12.3674ZM14.8732 6.37932V6.75519H14.6226V6.37932H14.8732ZM14.372 6.37932V6.75519H14.1215V6.37932H14.372ZM13.8709 6.37932V6.75519H13.6203V6.37932H13.8709ZM12.3674 6.37932V6.75519H12.1168V6.37932H12.3674ZM13.3697 6.37932V6.75519H13.1191V6.37932H13.3697ZM12.8686 6.37932V6.75519H12.618V6.37932H12.8686ZM12.8686 7.13106V7.50694H12.618V7.13106H12.8686ZM13.3697 7.13106V7.50694H13.1191V7.13106H13.3697ZM12.3674 7.13106V7.50694H12.1168V7.13106H12.3674ZM13.8709 7.13106V7.50694H13.6203V7.13106H13.8709ZM14.372 7.13106V7.50694H14.1215V7.13106H14.372ZM14.8732 7.13106V7.50694H14.6226V7.13106H14.8732ZM14.372 7.88281V8.25868H14.1215V7.88281H14.372ZM13.3697 7.88281V8.25868H13.1191V7.88281H13.3697ZM12.8686 7.88281V8.25868H12.618V7.88281H12.8686ZM14.8732 7.88281V8.25868H14.6226V7.88281H14.8732ZM13.8709 7.88281V8.25868H13.6203V7.88281H13.8709ZM12.3674 7.88281V8.25868H12.1168V7.88281H12.3674Z" fill="#FFB86C"/>
    <path d="M17.3771 1.11708V1.49296H17.1265V1.11708H17.3771ZM16.8759 1.11708V1.49296H16.6253V1.11708H16.8759ZM16.3748 1.11708V1.49296H16.1242V1.11708H16.3748ZM15.8736 1.11708V1.49296H15.623V1.11708H15.8736ZM15.3724 1.11708V1.49296H15.1218V1.11708H15.3724ZM17.8782 1.11708V1.49296H17.6277V1.11708H17.8782ZM17.8782 1.86883V2.24471H17.6277V1.86883H17.8782ZM17.3771 1.86883V2.24471H17.1265V1.86883H17.3771ZM16.8759 1.86883V2.24471H16.6253V1.86883H16.8759ZM16.3748 1.86883V2.24471H16.1242V1.86883H16.3748ZM15.8736 1.86883V2.24471H15.623V1.86883H15.8736ZM15.3724 1.86883V2.24471H15.1218V1.86883H15.3724ZM17.8782 2.62058V2.99645H17.6277V2.62058H17.8782ZM17.3771 2.62058V2.99645H17.1265V2.62058H17.3771ZM16.8759 2.62058V2.99645H16.6253V2.62058H16.8759ZM15.3724 2.62058V2.99645H15.1218V2.62058H15.3724ZM16.3748 2.62058V2.99645H16.1242V2.62058H16.3748ZM15.8736 2.62058V2.99645H15.623V2.62058H15.8736ZM15.8736 3.37233V3.7482H15.623V3.37233H15.8736ZM15.3724 3.37233V3.7482H15.1218V3.37233H15.3724ZM16.3748 3.37233V3.7482H16.1242V3.37233H16.3748ZM16.8759 3.37233V3.7482H16.6253V3.37233H16.8759ZM17.3771 3.37233V3.7482H17.1265V3.37233H17.3771ZM17.8782 3.37233V3.7482H17.6277V3.37233H17.8782ZM17.3771 4.12407V4.49995H17.1265V4.12407H17.3771ZM15.3724 4.12407V4.49995H15.1218V4.12407H15.3724ZM15.8736 4.12407V4.49995H15.623V4.12407H15.8736ZM17.8782 4.12407V4.49995H17.6277V4.12407H17.8782ZM16.3748 4.12407V4.49995H16.1242V4.12407H16.3748ZM16.8759 4.12407V4.49995H16.6253V4.12407H16.8759ZM15.8736 4.87582V5.2517H15.623V4.87582H15.8736ZM16.3748 4.87582V5.2517H16.1242V4.87582H16.3748ZM17.8782 4.87582V5.2517H17.6277V4.87582H17.8782ZM15.3724 4.87582V5.2517H15.1218V4.87582H15.3724ZM16.8759 4.87582V5.2517H16.6253V4.87582H16.8759ZM17.3771 4.87582V5.2517H17.1265V4.87582H17.3771ZM17.8782 5.62757V6.00344H17.6277V5.62757H17.8782ZM17.3771 5.62757V6.00344H17.1265V5.62757H17.3771ZM16.8759 5.62757V6.00344H16.6253V5.62757H16.8759ZM16.3748 5.62757V6.00344H16.1242V5.62757H16.3748ZM15.8736 5.62757V6.00344H15.623V5.62757H15.8736ZM15.3724 5.62757V6.00344H15.1218V5.62757H15.3724ZM17.8782 6.37932V6.75519H17.6277V6.37932H17.8782ZM17.3771 6.37932V6.75519H17.1265V6.37932H17.3771ZM16.8759 6.37932V6.75519H16.6253V6.37932H16.8759ZM15.3724 6.37932V6.75519H15.1218V6.37932H15.3724ZM16.3748 6.37932V6.75519H16.1242V6.37932H16.3748ZM15.8736 6.37932V6.75519H15.623V6.37932H15.8736ZM15.8736 7.13106V7.50694H15.623V7.13106H15.8736ZM16.3748 7.13106V7.50694H16.1242V7.13106H16.3748ZM15.3724 7.13106V7.50694H15.1218V7.13106H15.3724ZM16.8759 7.13106V7.50694H16.6253V7.13106H16.8759ZM17.3771 7.13106V7.50694H17.1265V7.13106H17.3771ZM17.8782 7.13106V7.50694H17.6277V7.13106H17.8782ZM17.3771 7.88281V8.25868H17.1265V7.88281H17.3771ZM16.3748 7.88281V8.25868H16.1242V7.88281H16.3748ZM15.8736 7.88281V8.25868H15.623V7.88281H15.8736ZM17.8782 7.88281V8.25868H17.6277V7.88281H17.8782ZM16.8759 7.88281V8.25868H16.6253V7.88281H16.8759ZM15.3724 7.88281V8.25868H15.1218V7.88281H15.3724Z" fill="#FFB86C"/>
    <path d="M20.3821 1.11708V1.49296H20.1315V1.11708H20.3821ZM19.8809 1.11708V1.49296H19.6304V1.11708H19.8809ZM19.3798 1.11708V1.49296H19.1292V1.11708H19.3798ZM18.8786 1.11708V1.49296H18.628V1.11708H18.8786ZM18.3775 1.11708V1.49296H18.1269V1.11708H18.3775ZM20.8833 1.11708V1.49296H20.6327V1.11708H20.8833ZM20.8833 1.86883V2.24471H20.6327V1.86883H20.8833ZM20.3821 1.86883V2.24471H20.1315V1.86883H20.3821ZM19.8809 1.86883V2.24471H19.6304V1.86883H19.8809ZM19.3798 1.86883V2.24471H19.1292V1.86883H19.3798ZM18.8786 1.86883V2.24471H18.628V1.86883H18.8786ZM18.3775 1.86883V2.24471H18.1269V1.86883H18.3775ZM20.8833 2.62058V2.99645H20.6327V2.62058H20.8833ZM20.3821 2.62058V2.99645H20.1315V2.62058H20.3821ZM19.8809 2.62058V2.99645H19.6304V2.62058H19.8809ZM18.3775 2.62058V2.99645H18.1269V2.62058H18.3775ZM19.3798 2.62058V2.99645H19.1292V2.62058H19.3798ZM18.8786 2.62058V2.99645H18.628V2.62058H18.8786ZM18.8786 3.37233V3.7482H18.628V3.37233H18.8786ZM18.3775 3.37233V3.7482H18.1269V3.37233H18.3775ZM19.3798 3.37233V3.7482H19.1292V3.37233H19.3798ZM19.8809 3.37233V3.7482H19.6304V3.37233H19.8809ZM20.3821 3.37233V3.7482H20.1315V3.37233H20.3821ZM20.8833 3.37233V3.7482H20.6327V3.37233H20.8833ZM20.3821 4.12407V4.49995H20.1315V4.12407H20.3821ZM18.3775 4.12407V4.49995H18.1269V4.12407H18.3775ZM18.8786 4.12407V4.49995H18.628V4.12407H18.8786ZM20.8833 4.12407V4.49995H20.6327V4.12407H20.8833ZM19.3798 4.12407V4.49995H19.1292V4.12407H19.3798ZM19.8809 4.12407V4.49995H19.6304V4.12407H19.8809ZM18.8786 4.87582V5.2517H18.628V4.87582H18.8786ZM19.3798 4.87582V5.2517H19.1292V4.87582H19.3798ZM20.8833 4.87582V5.2517H20.6327V4.87582H20.8833ZM18.3775 4.87582V5.2517H18.1269V4.87582H18.3775ZM19.8809 4.87582V5.2517H19.6304V4.87582H19.8809ZM20.3821 4.87582V5.2517H20.1315V4.87582H20.3821ZM20.8833 5.62757V6.00344H20.6327V5.62757H20.8833ZM20.3821 5.62757V6.00344H20.1315V5.62757H20.3821ZM19.8809 5.62757V6.00344H19.6304V5.62757H19.8809ZM19.3798 5.62757V6.00344H19.1292V5.62757H19.3798ZM18.8786 5.62757V6.00344H18.628V5.62757H18.8786ZM18.3775 5.62757V6.00344H18.1269V5.62757H18.3775ZM20.8833 6.37932V6.75519H20.6327V6.37932H20.8833ZM20.3821 6.37932V6.75519H20.1315V6.37932H20.3821ZM19.8809 6.37932V6.75519H19.6304V6.37932H19.8809ZM18.3775 6.37932V6.75519H18.1269V6.37932H18.3775ZM19.3798 6.37932V6.75519H19.1292V6.37932H19.3798ZM18.8786 6.37932V6.75519H18.628V6.37932H18.8786ZM18.8786 7.13106V7.50694H18.628V7.13106H18.8786ZM19.3798 7.13106V7.50694H19.1292V7.13106H19.3798ZM18.3775 7.13106V7.50694H18.1269V7.13106H18.3775ZM19.8809 7.13106V7.50694H19.6304V7.13106H19.8809ZM20.3821 7.13106V7.50694H20.1315V7.13106H20.3821ZM20.8833 7.13106V7.50694H20.6327V7.13106H20.8833ZM20.3821 7.88281V8.25868H20.1315V7.88281H20.3821ZM19.3798 7.88281V8.25868H19.1292V7.88281H19.3798ZM18.8786 7.88281V8.25868H18.628V7.88281H18.8786ZM20.8833 7.88281V8.25868H20.6327V7.88281H20.8833ZM19.8809 7.88281V8.25868H19.6304V7.88281H19.8809ZM18.3775 7.88281V8.25868H18.1269V7.88281H18.3775Z" fill="#FFB86C"/>
    <path d="M23.3871 1.11708V1.49296H23.1366V1.11708H23.3871ZM22.886 1.11708V1.49296H22.6354V1.11708H22.886ZM22.3848 1.11708V1.49296H22.1342V1.11708H22.3848ZM21.8837 1.11708V1.49296H21.6331V1.11708H21.8837ZM21.3825 1.11708V1.49296H21.1319V1.11708H21.3825ZM23.8883 1.11708V1.49296H23.6377V1.11708H23.8883ZM23.8883 1.86883V2.24471H23.6377V1.86883H23.8883ZM23.3871 1.86883V2.24471H23.1366V1.86883H23.3871ZM22.886 1.86883V2.24471H22.6354V1.86883H22.886ZM22.3848 1.86883V2.24471H22.1342V1.86883H22.3848ZM21.8837 1.86883V2.24471H21.6331V1.86883H21.8837ZM21.3825 1.86883V2.24471H21.1319V1.86883H21.3825ZM23.8883 2.62058V2.99645H23.6377V2.62058H23.8883ZM23.3871 2.62058V2.99645H23.1366V2.62058H23.3871ZM22.886 2.62058V2.99645H22.6354V2.62058H22.886ZM21.3825 2.62058V2.99645H21.1319V2.62058H21.3825ZM22.3848 2.62058V2.99645H22.1342V2.62058H22.3848ZM21.8837 2.62058V2.99645H21.6331V2.62058H21.8837ZM21.8837 3.37233V3.7482H21.6331V3.37233H21.8837ZM21.3825 3.37233V3.7482H21.1319V3.37233H21.3825ZM22.3848 3.37233V3.7482H22.1342V3.37233H22.3848ZM22.886 3.37233V3.7482H22.6354V3.37233H22.886ZM23.3871 3.37233V3.7482H23.1366V3.37233H23.3871ZM23.8883 3.37233V3.7482H23.6377V3.37233H23.8883ZM23.3871 4.12407V4.49995H23.1366V4.12407H23.3871ZM21.3825 4.12407V4.49995H21.1319V4.12407H21.3825ZM21.8837 4.12407V4.49995H21.6331V4.12407H21.8837ZM23.8883 4.12407V4.49995H23.6377V4.12407H23.8883ZM22.3848 4.12407V4.49995H22.1342V4.12407H22.3848ZM22.886 4.12407V4.49995H22.6354V4.12407H22.886ZM21.8837 4.87582V5.2517H21.6331V4.87582H21.8837ZM22.3848 4.87582V5.2517H22.1342V4.87582H22.3848ZM23.8883 4.87582V5.2517H23.6377V4.87582H23.8883ZM21.3825 4.87582V5.2517H21.1319V4.87582H21.3825ZM22.886 4.87582V5.2517H22.6354V4.87582H22.886ZM23.3871 4.87582V5.2517H23.1366V4.87582H23.3871ZM23.8883 5.62757V6.00344H23.6377V5.62757H23.8883ZM23.3871 5.62757V6.00344H23.1366V5.62757H23.3871ZM22.886 5.62757V6.00344H22.6354V5.62757H22.886ZM22.3848 5.62757V6.00344H22.1342V5.62757H22.3848ZM21.8837 5.62757V6.00344H21.6331V5.62757H21.8837ZM21.3825 5.62757V6.00344H21.1319V5.62757H21.3825ZM23.8883 6.37932V6.75519H23.6377V6.37932H23.8883ZM23.3871 6.37932V6.75519H23.1366V6.37932H23.3871ZM22.886 6.37932V6.75519H22.6354V6.37932H22.886ZM21.3825 6.37932V6.75519H21.1319V6.37932H21.3825ZM22.3848 6.37932V6.75519H22.1342V6.37932H22.3848ZM21.8837 6.37932V6.75519H21.6331V6.37932H21.8837ZM21.8837 7.13106V7.50694H21.6331V7.13106H21.8837ZM22.3848 7.13106V7.50694H22.1342V7.13106H22.3848ZM21.3825 7.13106V7.50694H21.1319V7.13106H21.3825ZM22.886 7.13106V7.50694H22.6354V7.13106H22.886ZM23.3871 7.13106V7.50694H23.1366V7.13106H23.3871ZM23.8883 7.13106V7.50694H23.6377V7.13106H23.8883ZM23.3871 7.88281V8.25868H23.1366V7.88281H23.3871ZM22.3848 7.88281V8.25868H22.1342V7.88281H22.3848ZM21.8837 7.88281V8.25868H21.6331V7.88281H21.8837ZM23.8883 7.88281V8.25868H23.6377V7.88281H23.8883ZM22.886 7.88281V8.25868H22.6354V7.88281H22.886ZM21.3825 7.88281V8.25868H21.1319V7.88281H21.3825Z" fill="#FFB86C"/>
    <path d="M26.8933 0.741211V8.25868H23.8864V0.741211H26.8933Z" fill="#FFB86C"/>
    <path d="M29.8984 0.741211V4.49995H26.8914V0.741211H29.8984Z" fill="#FFB86C"/>
    <path d="M32.9034 4.49995V8.25868H29.8964V4.49995H32.9034Z" fill="#FFB86C"/>
    <path d="M2.35192 8.11708V8.49296H2.10134V8.11708H2.35192ZM1.85076 8.11708V8.49296H1.60017V8.11708H1.85076ZM1.34959 8.11708V8.49296H1.09901V8.11708H1.34959ZM0.848427 8.11708V8.49296H0.597845V8.11708H0.848427ZM0.347262 8.11708V8.49296H0.0966797V8.11708H0.347262ZM2.85309 8.11708V8.49296H2.6025V8.11708H2.85309ZM2.85309 8.86883V9.24471H2.6025V8.86883H2.85309ZM2.35192 8.86883V9.24471H2.10134V8.86883H2.35192ZM1.85076 8.86883V9.24471H1.60017V8.86883H1.85076ZM1.34959 8.86883V9.24471H1.09901V8.86883H1.34959ZM0.848427 8.86883V9.24471H0.597845V8.86883H0.848427ZM0.347262 8.86883V9.24471H0.0966797V8.86883H0.347262ZM2.85309 9.62058V9.99645H2.6025V9.62058H2.85309ZM2.35192 9.62058V9.99645H2.10134V9.62058H2.35192ZM1.85076 9.62058V9.99645H1.60017V9.62058H1.85076ZM0.347262 9.62058V9.99645H0.0966797V9.62058H0.347262ZM1.34959 9.62058V9.99645H1.09901V9.62058H1.34959ZM0.848427 9.62058V9.99645H0.597845V9.62058H0.848427ZM0.848427 10.3723V10.7482H0.597845V10.3723H0.848427ZM0.347262 10.3723V10.7482H0.0966797V10.3723H0.347262ZM1.34959 10.3723V10.7482H1.09901V10.3723H1.34959ZM1.85076 10.3723V10.7482H1.60017V10.3723H1.85076ZM2.35192 10.3723V10.7482H2.10134V10.3723H2.35192ZM2.85309 10.3723V10.7482H2.6025V10.3723H2.85309ZM2.35192 11.1241V11.4999H2.10134V11.1241H2.35192ZM0.347262 11.1241V11.4999H0.0966797V11.1241H0.347262ZM0.848427 11.1241V11.4999H0.597845V11.1241H0.848427ZM2.85309 11.1241V11.4999H2.6025V11.1241H2.85309ZM1.34959 11.1241V11.4999H1.09901V11.1241H1.34959ZM1.85076 11.1241V11.4999H1.60017V11.1241H1.85076ZM0.848427 11.8758V12.2517H0.597845V11.8758H0.848427ZM1.34959 11.8758V12.2517H1.09901V11.8758H1.34959ZM2.85309 11.8758V12.2517H2.6025V11.8758H2.85309ZM0.347262 11.8758V12.2517H0.0966797V11.8758H0.347262ZM1.85076 11.8758V12.2517H1.60017V11.8758H1.85076ZM2.35192 11.8758V12.2517H2.10134V11.8758H2.35192ZM2.85309 12.6276V13.0034H2.6025V12.6276H2.85309ZM2.35192 12.6276V13.0034H2.10134V12.6276H2.35192ZM1.85076 12.6276V13.0034H1.60017V12.6276H1.85076ZM1.34959 12.6276V13.0034H1.09901V12.6276H1.34959ZM0.848427 12.6276V13.0034H0.597845V12.6276H0.848427ZM0.347262 12.6276V13.0034H0.0966797V12.6276H0.347262ZM2.85309 13.3793V13.7552H2.6025V13.3793H2.85309ZM2.35192 13.3793V13.7552H2.10134V13.3793H2.35192ZM1.85076 13.3793V13.7552H1.60017V13.3793H1.85076ZM0.347262 13.3793V13.7552H0.0966797V13.3793H0.347262ZM1.34959 13.3793V13.7552H1.09901V13.3793H1.34959ZM0.848427 13.3793V13.7552H0.597845V13.3793H0.848427ZM0.848427 14.1311V14.5069H0.597845V14.1311H0.848427ZM1.34959 14.1311V14.5069H1.09901V14.1311H1.34959ZM0.347262 14.1311V14.5069H0.0966797V14.1311H0.347262ZM1.85076 14.1311V14.5069H1.60017V14.1311H1.85076ZM2.35192 14.1311V14.5069H2.10134V14.1311H2.35192ZM2.85309 14.1311V14.5069H2.6025V14.1311H2.85309ZM2.35192 14.8828V15.2587H2.10134V14.8828H2.35192ZM1.34959 14.8828V15.2587H1.09901V14.8828H1.34959ZM0.848427 14.8828V15.2587H0.597845V14.8828H0.848427ZM2.85309 14.8828V15.2587H2.6025V14.8828H2.85309ZM1.85076 14.8828V15.2587H1.60017V14.8828H1.85076ZM0.347262 14.8828V15.2587H0.0966797V14.8828H0.347262Z" fill="#FFB86C"/>
    <path d="M5.85812 7.74121V15.2587H2.85113V7.74121H5.85812Z" fill="#FFB86C"/>
    <path d="M8.86315 7.74121V11.4999H5.85616V7.74121H8.86315Z" fill="#FFB86C"/>
    <path d="M11.8682 7.74121V15.2587H8.86119V7.74121H11.8682Z" fill="#FFB86C"/>
    <path d="M14.372 8.11708V8.49296H14.1215V8.11708H14.372ZM13.8709 8.11708V8.49296H13.6203V8.11708H13.8709ZM13.3697 8.11708V8.49296H13.1191V8.11708H13.3697ZM12.8686 8.11708V8.49296H12.618V8.11708H12.8686ZM12.3674 8.11708V8.49296H12.1168V8.11708H12.3674ZM14.8732 8.11708V8.49296H14.6226V8.11708H14.8732ZM14.8732 8.86883V9.24471H14.6226V8.86883H14.8732ZM14.372 8.86883V9.24471H14.1215V8.86883H14.372ZM13.8709 8.86883V9.24471H13.6203V8.86883H13.8709ZM13.3697 8.86883V9.24471H13.1191V8.86883H13.3697ZM12.8686 8.86883V9.24471H12.618V8.86883H12.8686ZM12.3674 8.86883V9.24471H12.1168V8.86883H12.3674ZM14.8732 9.62058V9.99645H14.6226V9.62058H14.8732ZM14.372 9.62058V9.99645H14.1215V9.62058H14.372ZM13.8709 9.62058V9.99645H13.6203V9.62058H13.8709ZM12.3674 9.62058V9.99645H12.1168V9.62058H12.3674ZM13.3697 9.62058V9.99645H13.1191V9.62058H13.3697ZM12.8686 9.62058V9.99645H12.618V9.62058H12.8686ZM12.8686 10.3723V10.7482H12.618V10.3723H12.8686ZM12.3674 10.3723V10.7482H12.1168V10.3723H12.3674ZM13.3697 10.3723V10.7482H13.1191V10.3723H13.3697ZM13.8709 10.3723V10.7482H13.6203V10.3723H13.8709ZM14.372 10.3723V10.7482H14.1215V10.3723H14.372ZM14.8732 10.3723V10.7482H14.6226V10.3723H14.8732ZM14.372 11.1241V11.4999H14.1215V11.1241H14.372ZM12.3674 11.1241V11.4999H12.1168V11.1241H12.3674ZM12.8686 11.1241V11.4999H12.618V11.1241H12.8686ZM14.8732 11.1241V11.4999H14.6226V11.1241H14.8732ZM13.3697 11.1241V11.4999H13.1191V11.1241H13.3697ZM13.8709 11.1241V11.4999H13.6203V11.1241H13.8709ZM12.8686 11.8758V12.2517H12.618V11.8758H12.8686ZM13.3697 11.8758V12.2517H13.1191V11.8758H13.3697ZM14.8732 11.8758V12.2517H14.6226V11.8758H14.8732ZM12.3674 11.8758V12.2517H12.1168V11.8758H12.3674ZM13.8709 11.8758V12.2517H13.6203V11.8758H13.8709ZM14.372 11.8758V12.2517H14.1215V11.8758H14.372ZM14.8732 12.6276V13.0034H14.6226V12.6276H14.8732ZM14.372 12.6276V13.0034H14.1215V12.6276H14.372ZM13.8709 12.6276V13.0034H13.6203V12.6276H13.8709ZM13.3697 12.6276V13.0034H13.1191V12.6276H13.3697ZM12.8686 12.6276V13.0034H12.618V12.6276H12.8686ZM12.3674 12.6276V13.0034H12.1168V12.6276H12.3674ZM14.8732 13.3793V13.7552H14.6226V13.3793H14.8732ZM14.372 13.3793V13.7552H14.1215V13.3793H14.372ZM13.8709 13.3793V13.7552H13.6203V13.3793H13.8709ZM12.3674 13.3793V13.7552H12.1168V13.3793H12.3674ZM13.3697 13.3793V13.7552H13.1191V13.3793H13.3697ZM12.8686 13.3793V13.7552H12.618V13.3793H12.8686ZM12.8686 14.1311V14.5069H12.618V14.1311H12.8686ZM13.3697 14.1311V14.5069H13.1191V14.1311H13.3697ZM12.3674 14.1311V14.5069H12.1168V14.1311H12.3674ZM13.8709 14.1311V14.5069H13.6203V14.1311H13.8709ZM14.372 14.1311V14.5069H14.1215V14.1311H14.372ZM14.8732 14.1311V14.5069H14.6226V14.1311H14.8732ZM14.372 14.8828V15.2587H14.1215V14.8828H14.372ZM13.3697 14.8828V15.2587H13.1191V14.8828H13.3697ZM12.8686 14.8828V15.2587H12.618V14.8828H12.8686ZM14.8732 14.8828V15.2587H14.6226V14.8828H14.8732ZM13.8709 14.8828V15.2587H13.6203V14.8828H13.8709ZM12.3674 14.8828V15.2587H12.1168V14.8828H12.3674Z" fill="#FFB86C"/>
    <path d="M17.3771 8.11708V8.49296H17.1265V8.11708H17.3771ZM16.8759 8.11708V8.49296H16.6253V8.11708H16.8759ZM16.3748 8.11708V8.49296H16.1242V8.11708H16.3748ZM15.8736 8.11708V8.49296H15.623V8.11708H15.8736ZM15.3724 8.11708V8.49296H15.1218V8.11708H15.3724ZM17.8782 8.11708V8.49296H17.6277V8.11708H17.8782ZM17.8782 8.86883V9.24471H17.6277V8.86883H17.8782ZM17.3771 8.86883V9.24471H17.1265V8.86883H17.3771ZM16.8759 8.86883V9.24471H16.6253V8.86883H16.8759ZM16.3748 8.86883V9.24471H16.1242V8.86883H16.3748ZM15.8736 8.86883V9.24471H15.623V8.86883H15.8736ZM15.3724 8.86883V9.24471H15.1218V8.86883H15.3724ZM17.8782 9.62058V9.99645H17.6277V9.62058H17.8782ZM17.3771 9.62058V9.99645H17.1265V9.62058H17.3771ZM16.8759 9.62058V9.99645H16.6253V9.62058H16.8759ZM15.3724 9.62058V9.99645H15.1218V9.62058H15.3724ZM16.3748 9.62058V9.99645H16.1242V9.62058H16.3748ZM15.8736 9.62058V9.99645H15.623V9.62058H15.8736ZM15.8736 10.3723V10.7482H15.623V10.3723H15.8736ZM15.3724 10.3723V10.7482H15.1218V10.3723H15.3724ZM16.3748 10.3723V10.7482H16.1242V10.3723H16.3748ZM16.8759 10.3723V10.7482H16.6253V10.3723H16.8759ZM17.3771 10.3723V10.7482H17.1265V10.3723H17.3771ZM17.8782 10.3723V10.7482H17.6277V10.3723H17.8782ZM17.3771 11.1241V11.4999H17.1265V11.1241H17.3771ZM15.3724 11.1241V11.4999H15.1218V11.1241H15.3724ZM15.8736 11.1241V11.4999H15.623V11.1241H15.8736ZM17.8782 11.1241V11.4999H17.6277V11.1241H17.8782ZM16.3748 11.1241V11.4999H16.1242V11.1241H16.3748ZM16.8759 11.1241V11.4999H16.6253V11.1241H16.8759ZM15.8736 11.8758V12.2517H15.623V11.8758H15.8736ZM16.3748 11.8758V12.2517H16.1242V11.8758H16.3748ZM17.8782 11.8758V12.2517H17.6277V11.8758H17.8782ZM15.3724 11.8758V12.2517H15.1218V11.8758H15.3724ZM16.8759 11.8758V12.2517H16.6253V11.8758H16.8759ZM17.3771 11.8758V12.2517H17.1265V11.8758H17.3771ZM17.8782 12.6276V13.0034H17.6277V12.6276H17.8782ZM17.3771 12.6276V13.0034H17.1265V12.6276H17.3771ZM16.8759 12.6276V13.0034H16.6253V12.6276H16.8759ZM16.3748 12.6276V13.0034H16.1242V12.6276H16.3748ZM15.8736 12.6276V13.0034H15.623V12.6276H15.8736ZM15.3724 12.6276V13.0034H15.1218V12.6276H15.3724ZM17.8782 13.3793V13.7552H17.6277V13.3793H17.8782ZM17.3771 13.3793V13.7552H17.1265V13.3793H17.3771ZM16.8759 13.3793V13.7552H16.6253V13.3793H16.8759ZM15.3724 13.3793V13.7552H15.1218V13.3793H15.3724ZM16.3748 13.3793V13.7552H16.1242V13.3793H16.3748ZM15.8736 13.3793V13.7552H15.623V13.3793H15.8736ZM15.8736 14.1311V14.5069H15.623V14.1311H15.8736ZM16.3748 14.1311V14.5069H16.1242V14.1311H16.3748ZM15.3724 14.1311V14.5069H15.1218V14.1311H15.3724ZM16.8759 14.1311V14.5069H16.6253V14.1311H16.8759ZM17.3771 14.1311V14.5069H17.1265V14.1311H17.3771ZM17.8782 14.1311V14.5069H17.6277V14.1311H17.8782ZM17.3771 14.8828V15.2587H17.1265V14.8828H17.3771ZM16.3748 14.8828V15.2587H16.1242V14.8828H16.3748ZM15.8736 14.8828V15.2587H15.623V14.8828H15.8736ZM17.8782 14.8828V15.2587H17.6277V14.8828H17.8782ZM16.8759 14.8828V15.2587H16.6253V14.8828H16.8759ZM15.3724 14.8828V15.2587H15.1218V14.8828H15.3724Z" fill="#FFB86C"/>
    <path d="M20.3821 8.11708V8.49296H20.1315V8.11708H20.3821ZM19.8809 8.11708V8.49296H19.6304V8.11708H19.8809ZM19.3798 8.11708V8.49296H19.1292V8.11708H19.3798ZM18.8786 8.11708V8.49296H18.628V8.11708H18.8786ZM18.3775 8.11708V8.49296H18.1269V8.11708H18.3775ZM20.8833 8.11708V8.49296H20.6327V8.11708H20.8833ZM20.8833 8.86883V9.24471H20.6327V8.86883H20.8833ZM20.3821 8.86883V9.24471H20.1315V8.86883H20.3821ZM19.8809 8.86883V9.24471H19.6304V8.86883H19.8809ZM19.3798 8.86883V9.24471H19.1292V8.86883H19.3798ZM18.8786 8.86883V9.24471H18.628V8.86883H18.8786ZM18.3775 8.86883V9.24471H18.1269V8.86883H18.3775ZM20.8833 9.62058V9.99645H20.6327V9.62058H20.8833ZM20.3821 9.62058V9.99645H20.1315V9.62058H20.3821ZM19.8809 9.62058V9.99645H19.6304V9.62058H19.8809ZM18.3775 9.62058V9.99645H18.1269V9.62058H18.3775ZM19.3798 9.62058V9.99645H19.1292V9.62058H19.3798ZM18.8786 9.62058V9.99645H18.628V9.62058H18.8786ZM18.8786 10.3723V10.7482H18.628V10.3723H18.8786ZM18.3775 10.3723V10.7482H18.1269V10.3723H18.3775ZM19.3798 10.3723V10.7482H19.1292V10.3723H19.3798ZM19.8809 10.3723V10.7482H19.6304V10.3723H19.8809ZM20.3821 10.3723V10.7482H20.1315V10.3723H20.3821ZM20.8833 10.3723V10.7482H20.6327V10.3723H20.8833ZM20.3821 11.1241V11.4999H20.1315V11.1241H20.3821ZM18.3775 11.1241V11.4999H18.1269V11.1241H18.3775ZM18.8786 11.1241V11.4999H18.628V11.1241H18.8786ZM20.8833 11.1241V11.4999H20.6327V11.1241H20.8833ZM19.3798 11.1241V11.4999H19.1292V11.1241H19.3798ZM19.8809 11.1241V11.4999H19.6304V11.1241H19.8809ZM18.8786 11.8758V12.2517H18.628V11.8758H18.8786ZM19.3798 11.8758V12.2517H19.1292V11.8758H19.3798ZM20.8833 11.8758V12.2517H20.6327V11.8758H20.8833ZM18.3775 11.8758V12.2517H18.1269V11.8758H18.3775ZM19.8809 11.8758V12.2517H19.6304V11.8758H19.8809ZM20.3821 11.8758V12.2517H20.1315V11.8758H20.3821ZM20.8833 12.6276V13.0034H20.6327V12.6276H20.8833ZM20.3821 12.6276V13.0034H20.1315V12.6276H20.3821ZM19.8809 12.6276V13.0034H19.6304V12.6276H19.8809ZM19.3798 12.6276V13.0034H19.1292V12.6276H19.3798ZM18.8786 12.6276V13.0034H18.628V12.6276H18.8786ZM18.3775 12.6276V13.0034H18.1269V12.6276H18.3775ZM20.8833 13.3793V13.7552H20.6327V13.3793H20.8833ZM20.3821 13.3793V13.7552H20.1315V13.3793H20.3821ZM19.8809 13.3793V13.7552H19.6304V13.3793H19.8809ZM18.3775 13.3793V13.7552H18.1269V13.3793H18.3775ZM19.3798 13.3793V13.7552H19.1292V13.3793H19.3798ZM18.8786 13.3793V13.7552H18.628V13.3793H18.8786ZM18.8786 14.1311V14.5069H18.628V14.1311H18.8786ZM19.3798 14.1311V14.5069H19.1292V14.1311H19.3798ZM18.3775 14.1311V14.5069H18.1269V14.1311H18.3775ZM19.8809 14.1311V14.5069H19.6304V14.1311H19.8809ZM20.3821 14.1311V14.5069H20.1315V14.1311H20.3821ZM20.8833 14.1311V14.5069H20.6327V14.1311H20.8833ZM20.3821 14.8828V15.2587H20.1315V14.8828H20.3821ZM19.3798 14.8828V15.2587H19.1292V14.8828H19.3798ZM18.8786 14.8828V15.2587H18.628V14.8828H18.8786ZM20.8833 14.8828V15.2587H20.6327V14.8828H20.8833ZM19.8809 14.8828V15.2587H19.6304V14.8828H19.8809ZM18.3775 14.8828V15.2587H18.1269V14.8828H18.3775Z" fill="#FFB86C"/>
    <path d="M23.3871 8.11708V8.49296H23.1366V8.11708H23.3871ZM22.886 8.11708V8.49296H22.6354V8.11708H22.886ZM22.3848 8.11708V8.49296H22.1342V8.11708H22.3848ZM21.8837 8.11708V8.49296H21.6331V8.11708H21.8837ZM21.3825 8.11708V8.49296H21.1319V8.11708H21.3825ZM23.8883 8.11708V8.49296H23.6377V8.11708H23.8883ZM23.8883 8.86883V9.24471H23.6377V8.86883H23.8883ZM23.3871 8.86883V9.24471H23.1366V8.86883H23.3871ZM22.886 8.86883V9.24471H22.6354V8.86883H22.886ZM22.3848 8.86883V9.24471H22.1342V8.86883H22.3848ZM21.8837 8.86883V9.24471H21.6331V8.86883H21.8837ZM21.3825 8.86883V9.24471H21.1319V8.86883H21.3825ZM23.8883 9.62058V9.99645H23.6377V9.62058H23.8883ZM23.3871 9.62058V9.99645H23.1366V9.62058H23.3871ZM22.886 9.62058V9.99645H22.6354V9.62058H22.886ZM21.3825 9.62058V9.99645H21.1319V9.62058H21.3825ZM22.3848 9.62058V9.99645H22.1342V9.62058H22.3848ZM21.8837 9.62058V9.99645H21.6331V9.62058H21.8837ZM21.8837 10.3723V10.7482H21.6331V10.3723H21.8837ZM21.3825 10.3723V10.7482H21.1319V10.3723H21.3825ZM22.3848 10.3723V10.7482H22.1342V10.3723H22.3848ZM22.886 10.3723V10.7482H22.6354V10.3723H22.886ZM23.3871 10.3723V10.7482H23.1366V10.3723H23.3871ZM23.8883 10.3723V10.7482H23.6377V10.3723H23.8883ZM23.3871 11.1241V11.4999H23.1366V11.1241H23.3871ZM21.3825 11.1241V11.4999H21.1319V11.1241H21.3825ZM21.8837 11.1241V11.4999H21.6331V11.1241H21.8837ZM23.8883 11.1241V11.4999H23.6377V11.1241H23.8883ZM22.3848 11.1241V11.4999H22.1342V11.1241H22.3848ZM22.886 11.1241V11.4999H22.6354V11.1241H22.886ZM21.8837 11.8758V12.2517H21.6331V11.8758H21.8837ZM22.3848 11.8758V12.2517H22.1342V11.8758H22.3848ZM23.8883 11.8758V12.2517H23.6377V11.8758H23.8883ZM21.3825 11.8758V12.2517H21.1319V11.8758H21.3825ZM22.886 11.8758V12.2517H22.6354V11.8758H22.886ZM23.3871 11.8758V12.2517H23.1366V11.8758H23.3871ZM23.8883 12.6276V13.0034H23.6377V12.6276H23.8883ZM23.3871 12.6276V13.0034H23.1366V12.6276H23.3871ZM22.886 12.6276V13.0034H22.6354V12.6276H22.886ZM22.3848 12.6276V13.0034H22.1342V12.6276H22.3848ZM21.8837 12.6276V13.0034H21.6331V12.6276H21.8837ZM21.3825 12.6276V13.0034H21.1319V12.6276H21.3825ZM23.8883 13.3793V13.7552H23.6377V13.3793H23.8883ZM23.3871 13.3793V13.7552H23.1366V13.3793H23.3871ZM22.886 13.3793V13.7552H22.6354V13.3793H22.886ZM21.3825 13.3793V13.7552H21.1319V13.3793H21.3825ZM22.3848 13.3793V13.7552H22.1342V13.3793H22.3848ZM21.8837 13.3793V13.7552H21.6331V13.3793H21.8837ZM21.8837 14.1311V14.5069H21.6331V14.1311H21.8837ZM22.3848 14.1311V14.5069H22.1342V14.1311H22.3848ZM21.3825 14.1311V14.5069H21.1319V14.1311H21.3825ZM22.886 14.1311V14.5069H22.6354V14.1311H22.886ZM23.3871 14.1311V14.5069H23.1366V14.1311H23.3871ZM23.8883 14.1311V14.5069H23.6377V14.1311H23.8883ZM23.3871 14.8828V15.2587H23.1366V14.8828H23.3871ZM22.3848 14.8828V15.2587H22.1342V14.8828H22.3848ZM21.8837 14.8828V15.2587H21.6331V14.8828H21.8837ZM23.8883 14.8828V15.2587H23.6377V14.8828H23.8883ZM22.886 14.8828V15.2587H22.6354V14.8828H22.886ZM21.3825 14.8828V15.2587H21.1319V14.8828H21.3825Z" fill="#FFB86C"/>
    <path d="M26.8933 7.74121V15.2587H23.8864V7.74121H26.8933Z" fill="#FFB86C"/>
    <path d="M29.3972 8.11708V8.49296H29.1466V8.11708H29.3972ZM28.896 8.11708V8.49296H28.6455V8.11708H28.896ZM28.3949 8.11708V8.49296H28.1443V8.11708H28.3949ZM27.8937 8.11708V8.49296H27.6431V8.11708H27.8937ZM27.3925 8.11708V8.49296H27.142V8.11708H27.3925ZM29.8984 8.11708V8.49296H29.6478V8.11708H29.8984ZM29.8984 8.86883V9.24471H29.6478V8.86883H29.8984ZM29.3972 8.86883V9.24471H29.1466V8.86883H29.3972ZM28.896 8.86883V9.24471H28.6455V8.86883H28.896ZM28.3949 8.86883V9.24471H28.1443V8.86883H28.3949ZM27.8937 8.86883V9.24471H27.6431V8.86883H27.8937ZM27.3925 8.86883V9.24471H27.142V8.86883H27.3925ZM29.8984 9.62058V9.99645H29.6478V9.62058H29.8984ZM29.3972 9.62058V9.99645H29.1466V9.62058H29.3972ZM28.896 9.62058V9.99645H28.6455V9.62058H28.896ZM27.3925 9.62058V9.99645H27.142V9.62058H27.3925ZM28.3949 9.62058V9.99645H28.1443V9.62058H28.3949ZM27.8937 9.62058V9.99645H27.6431V9.62058H27.8937ZM27.8937 10.3723V10.7482H27.6431V10.3723H27.8937ZM27.3925 10.3723V10.7482H27.142V10.3723H27.3925ZM28.3949 10.3723V10.7482H28.1443V10.3723H28.3949ZM28.896 10.3723V10.7482H28.6455V10.3723H28.896ZM29.3972 10.3723V10.7482H29.1466V10.3723H29.3972ZM29.8984 10.3723V10.7482H29.6478V10.3723H29.8984ZM29.3972 11.1241V11.4999H29.1466V11.1241H29.3972ZM27.3925 11.1241V11.4999H27.142V11.1241H27.3925ZM27.8937 11.1241V11.4999H27.6431V11.1241H27.8937ZM29.8984 11.1241V11.4999H29.6478V11.1241H29.8984ZM28.3949 11.1241V11.4999H28.1443V11.1241H28.3949ZM28.896 11.1241V11.4999H28.6455V11.1241H28.896ZM27.8937 11.8758V12.2517H27.6431V11.8758H27.8937ZM28.3949 11.8758V12.2517H28.1443V11.8758H28.3949ZM29.8984 11.8758V12.2517H29.6478V11.8758H29.8984ZM27.3925 11.8758V12.2517H27.142V11.8758H27.3925ZM28.896 11.8758V12.2517H28.6455V11.8758H28.896ZM29.3972 11.8758V12.2517H29.1466V11.8758H29.3972ZM29.8984 12.6276V13.0034H29.6478V12.6276H29.8984ZM29.3972 12.6276V13.0034H29.1466V12.6276H29.3972ZM28.896 12.6276V13.0034H28.6455V12.6276H28.896ZM28.3949 12.6276V13.0034H28.1443V12.6276H28.3949ZM27.8937 12.6276V13.0034H27.6431V12.6276H27.8937ZM27.3925 12.6276V13.0034H27.142V12.6276H27.3925ZM29.8984 13.3793V13.7552H29.6478V13.3793H29.8984ZM29.3972 13.3793V13.7552H29.1466V13.3793H29.3972ZM28.896 13.3793V13.7552H28.6455V13.3793H28.896ZM27.3925 13.3793V13.7552H27.142V13.3793H27.3925ZM28.3949 13.3793V13.7552H28.1443V13.3793H28.3949ZM27.8937 13.3793V13.7552H27.6431V13.3793H27.8937ZM27.8937 14.1311V14.5069H27.6431V14.1311H27.8937ZM28.3949 14.1311V14.5069H28.1443V14.1311H28.3949ZM27.3925 14.1311V14.5069H27.142V14.1311H27.3925ZM28.896 14.1311V14.5069H28.6455V14.1311H28.896ZM29.3972 14.1311V14.5069H29.1466V14.1311H29.3972ZM29.8984 14.1311V14.5069H29.6478V14.1311H29.8984ZM29.3972 14.8828V15.2587H29.1466V14.8828H29.3972ZM28.3949 14.8828V15.2587H28.1443V14.8828H28.3949ZM27.8937 14.8828V15.2587H27.6431V14.8828H27.8937ZM29.8984 14.8828V15.2587H29.6478V14.8828H29.8984ZM28.896 14.8828V15.2587H28.6455V14.8828H28.896ZM27.3925 14.8828V15.2587H27.142V14.8828H27.3925Z" fill="#FFB86C"/>
    <path d="M32.9034 7.74121V15.2587H29.8964V7.74121H32.9034Z" fill="#FFB86C"/>
    <path d="M2.35192 15.1171V15.493H2.10134V15.1171H2.35192ZM1.85076 15.1171V15.493H1.60017V15.1171H1.85076ZM1.34959 15.1171V15.493H1.09901V15.1171H1.34959ZM0.848427 15.1171V15.493H0.597845V15.1171H0.848427ZM0.347262 15.1171V15.493H0.0966797V15.1171H0.347262ZM2.85309 15.1171V15.493H2.6025V15.1171H2.85309ZM2.85309 15.8688V16.2447H2.6025V15.8688H2.85309ZM2.35192 15.8688V16.2447H2.10134V15.8688H2.35192ZM1.85076 15.8688V16.2447H1.60017V15.8688H1.85076ZM1.34959 15.8688V16.2447H1.09901V15.8688H1.34959ZM0.848427 15.8688V16.2447H0.597845V15.8688H0.848427ZM0.347262 15.8688V16.2447H0.0966797V15.8688H0.347262ZM2.85309 16.6206V16.9965H2.6025V16.6206H2.85309ZM2.35192 16.6206V16.9965H2.10134V16.6206H2.35192ZM1.85076 16.6206V16.9965H1.60017V16.6206H1.85076ZM0.347262 16.6206V16.9965H0.0966797V16.6206H0.347262ZM1.34959 16.6206V16.9965H1.09901V16.6206H1.34959ZM0.848427 16.6206V16.9965H0.597845V16.6206H0.848427ZM0.848427 17.3723V17.7482H0.597845V17.3723H0.848427ZM0.347262 17.3723V17.7482H0.0966797V17.3723H0.347262ZM1.34959 17.3723V17.7482H1.09901V17.3723H1.34959ZM1.85076 17.3723V17.7482H1.60017V17.3723H1.85076ZM2.35192 17.3723V17.7482H2.10134V17.3723H2.35192ZM2.85309 17.3723V17.7482H2.6025V17.3723H2.85309ZM2.35192 18.1241V18.4999H2.10134V18.1241H2.35192ZM0.347262 18.1241V18.4999H0.0966797V18.1241H0.347262ZM0.848427 18.1241V18.4999H0.597845V18.1241H0.848427ZM2.85309 18.1241V18.4999H2.6025V18.1241H2.85309ZM1.34959 18.1241V18.4999H1.09901V18.1241H1.34959ZM1.85076 18.1241V18.4999H1.60017V18.1241H1.85076ZM0.848427 18.8758V19.2517H0.597845V18.8758H0.848427ZM1.34959 18.8758V19.2517H1.09901V18.8758H1.34959ZM2.85309 18.8758V19.2517H2.6025V18.8758H2.85309ZM0.347262 18.8758V19.2517H0.0966797V18.8758H0.347262ZM1.85076 18.8758V19.2517H1.60017V18.8758H1.85076ZM2.35192 18.8758V19.2517H2.10134V18.8758H2.35192ZM2.85309 19.6276V20.0034H2.6025V19.6276H2.85309ZM2.35192 19.6276V20.0034H2.10134V19.6276H2.35192ZM1.85076 19.6276V20.0034H1.60017V19.6276H1.85076ZM1.34959 19.6276V20.0034H1.09901V19.6276H1.34959ZM0.848427 19.6276V20.0034H0.597845V19.6276H0.848427ZM0.347262 19.6276V20.0034H0.0966797V19.6276H0.347262ZM2.85309 20.3793V20.7552H2.6025V20.3793H2.85309ZM2.35192 20.3793V20.7552H2.10134V20.3793H2.35192ZM1.85076 20.3793V20.7552H1.60017V20.3793H1.85076ZM0.347262 20.3793V20.7552H0.0966797V20.3793H0.347262ZM1.34959 20.3793V20.7552H1.09901V20.3793H1.34959ZM0.848427 20.3793V20.7552H0.597845V20.3793H0.848427ZM0.848427 21.1311V21.5069H0.597845V21.1311H0.848427ZM1.34959 21.1311V21.5069H1.09901V21.1311H1.34959ZM0.347262 21.1311V21.5069H0.0966797V21.1311H0.347262ZM1.85076 21.1311V21.5069H1.60017V21.1311H1.85076ZM2.35192 21.1311V21.5069H2.10134V21.1311H2.35192ZM2.85309 21.1311V21.5069H2.6025V21.1311H2.85309ZM2.35192 21.8828V22.2587H2.10134V21.8828H2.35192ZM1.34959 21.8828V22.2587H1.09901V21.8828H1.34959ZM0.848427 21.8828V22.2587H0.597845V21.8828H0.848427ZM2.85309 21.8828V22.2587H2.6025V21.8828H2.85309ZM1.85076 21.8828V22.2587H1.60017V21.8828H1.85076ZM0.347262 21.8828V22.2587H0.0966797V21.8828H0.347262Z" fill="#FFB86C"/>
    <path d="M5.85812 14.7412V18.4999H2.85113V14.7412H5.85812Z" fill="#FFB86C"/>
    <path d="M8.36199 15.1171V15.493H8.1114V15.1171H8.36199ZM7.86082 15.1171V15.493H7.61024V15.1171H7.86082ZM7.35966 15.1171V15.493H7.10907V15.1171H7.35966ZM6.85849 15.1171V15.493H6.60791V15.1171H6.85849ZM6.35733 15.1171V15.493H6.10674V15.1171H6.35733ZM8.86315 15.1171V15.493H8.61257V15.1171H8.86315ZM8.86315 15.8688V16.2447H8.61257V15.8688H8.86315ZM8.36199 15.8688V16.2447H8.1114V15.8688H8.36199ZM7.86082 15.8688V16.2447H7.61024V15.8688H7.86082ZM7.35966 15.8688V16.2447H7.10907V15.8688H7.35966ZM6.85849 15.8688V16.2447H6.60791V15.8688H6.85849ZM6.35733 15.8688V16.2447H6.10674V15.8688H6.35733ZM8.86315 16.6206V16.9965H8.61257V16.6206H8.86315ZM8.36199 16.6206V16.9965H8.1114V16.6206H8.36199ZM7.86082 16.6206V16.9965H7.61024V16.6206H7.86082ZM6.35733 16.6206V16.9965H6.10674V16.6206H6.35733ZM7.35966 16.6206V16.9965H7.10907V16.6206H7.35966ZM6.85849 16.6206V16.9965H6.60791V16.6206H6.85849ZM6.85849 17.3723V17.7482H6.60791V17.3723H6.85849ZM6.35733 17.3723V17.7482H6.10674V17.3723H6.35733ZM7.35966 17.3723V17.7482H7.10907V17.3723H7.35966ZM7.86082 17.3723V17.7482H7.61024V17.3723H7.86082ZM8.36199 17.3723V17.7482H8.1114V17.3723H8.36199ZM8.86315 17.3723V17.7482H8.61257V17.3723H8.86315ZM8.36199 18.1241V18.4999H8.1114V18.1241H8.36199ZM6.35733 18.1241V18.4999H6.10674V18.1241H6.35733ZM6.85849 18.1241V18.4999H6.60791V18.1241H6.85849ZM8.86315 18.1241V18.4999H8.61257V18.1241H8.86315ZM7.35966 18.1241V18.4999H7.10907V18.1241H7.35966ZM7.86082 18.1241V18.4999H7.61024V18.1241H7.86082ZM6.85849 18.8758V19.2517H6.60791V18.8758H6.85849ZM7.35966 18.8758V19.2517H7.10907V18.8758H7.35966ZM8.86315 18.8758V19.2517H8.61257V18.8758H8.86315ZM6.35733 18.8758V19.2517H6.10674V18.8758H6.35733ZM7.86082 18.8758V19.2517H7.61024V18.8758H7.86082ZM8.36199 18.8758V19.2517H8.1114V18.8758H8.36199ZM8.86315 19.6276V20.0034H8.61257V19.6276H8.86315ZM8.36199 19.6276V20.0034H8.1114V19.6276H8.36199ZM7.86082 19.6276V20.0034H7.61024V19.6276H7.86082ZM7.35966 19.6276V20.0034H7.10907V19.6276H7.35966ZM6.85849 19.6276V20.0034H6.60791V19.6276H6.85849ZM6.35733 19.6276V20.0034H6.10674V19.6276H6.35733ZM8.86315 20.3793V20.7552H8.61257V20.3793H8.86315ZM8.36199 20.3793V20.7552H8.1114V20.3793H8.36199ZM7.86082 20.3793V20.7552H7.61024V20.3793H7.86082ZM6.35733 20.3793V20.7552H6.10674V20.3793H6.35733ZM7.35966 20.3793V20.7552H7.10907V20.3793H7.35966ZM6.85849 20.3793V20.7552H6.60791V20.3793H6.85849ZM6.85849 21.1311V21.5069H6.60791V21.1311H6.85849ZM7.35966 21.1311V21.5069H7.10907V21.1311H7.35966ZM6.35733 21.1311V21.5069H6.10674V21.1311H6.35733ZM7.86082 21.1311V21.5069H7.61024V21.1311H7.86082ZM8.36199 21.1311V21.5069H8.1114V21.1311H8.36199ZM8.86315 21.1311V21.5069H8.61257V21.1311H8.86315ZM8.36199 21.8828V22.2587H8.1114V21.8828H8.36199ZM7.35966 21.8828V22.2587H7.10907V21.8828H7.35966ZM6.85849 21.8828V22.2587H6.60791V21.8828H6.85849ZM8.86315 21.8828V22.2587H8.61257V21.8828H8.86315ZM7.86082 21.8828V22.2587H7.61024V21.8828H7.86082ZM6.35733 21.8828V22.2587H6.10674V21.8828H6.35733Z" fill="#FFB86C"/>
    <path d="M11.8682 14.7412V18.4999H8.86119V14.7412H11.8682Z" fill="#FFB86C"/>
    <path d="M14.372 15.1171V15.493H14.1215V15.1171H14.372ZM13.8709 15.1171V15.493H13.6203V15.1171H13.8709ZM13.3697 15.1171V15.493H13.1191V15.1171H13.3697ZM12.8686 15.1171V15.493H12.618V15.1171H12.8686ZM12.3674 15.1171V15.493H12.1168V15.1171H12.3674ZM14.8732 15.1171V15.493H14.6226V15.1171H14.8732ZM14.8732 15.8688V16.2447H14.6226V15.8688H14.8732ZM14.372 15.8688V16.2447H14.1215V15.8688H14.372ZM13.8709 15.8688V16.2447H13.6203V15.8688H13.8709ZM13.3697 15.8688V16.2447H13.1191V15.8688H13.3697ZM12.8686 15.8688V16.2447H12.618V15.8688H12.8686ZM12.3674 15.8688V16.2447H12.1168V15.8688H12.3674ZM14.8732 16.6206V16.9965H14.6226V16.6206H14.8732ZM14.372 16.6206V16.9965H14.1215V16.6206H14.372ZM13.8709 16.6206V16.9965H13.6203V16.6206H13.8709ZM12.3674 16.6206V16.9965H12.1168V16.6206H12.3674ZM13.3697 16.6206V16.9965H13.1191V16.6206H13.3697ZM12.8686 16.6206V16.9965H12.618V16.6206H12.8686ZM12.8686 17.3723V17.7482H12.618V17.3723H12.8686ZM12.3674 17.3723V17.7482H12.1168V17.3723H12.3674ZM13.3697 17.3723V17.7482H13.1191V17.3723H13.3697ZM13.8709 17.3723V17.7482H13.6203V17.3723H13.8709ZM14.372 17.3723V17.7482H14.1215V17.3723H14.372ZM14.8732 17.3723V17.7482H14.6226V17.3723H14.8732ZM14.372 18.1241V18.4999H14.1215V18.1241H14.372ZM12.3674 18.1241V18.4999H12.1168V18.1241H12.3674ZM12.8686 18.1241V18.4999H12.618V18.1241H12.8686ZM14.8732 18.1241V18.4999H14.6226V18.1241H14.8732ZM13.3697 18.1241V18.4999H13.1191V18.1241H13.3697ZM13.8709 18.1241V18.4999H13.6203V18.1241H13.8709ZM12.8686 18.8758V19.2517H12.618V18.8758H12.8686ZM13.3697 18.8758V19.2517H13.1191V18.8758H13.3697ZM14.8732 18.8758V19.2517H14.6226V18.8758H14.8732ZM12.3674 18.8758V19.2517H12.1168V18.8758H12.3674ZM13.8709 18.8758V19.2517H13.6203V18.8758H13.8709ZM14.372 18.8758V19.2517H14.1215V18.8758H14.372ZM14.8732 19.6276V20.0034H14.6226V19.6276H14.8732ZM14.372 19.6276V20.0034H14.1215V19.6276H14.372ZM13.8709 19.6276V20.0034H13.6203V19.6276H13.8709ZM13.3697 19.6276V20.0034H13.1191V19.6276H13.3697ZM12.8686 19.6276V20.0034H12.618V19.6276H12.8686ZM12.3674 19.6276V20.0034H12.1168V19.6276H12.3674ZM14.8732 20.3793V20.7552H14.6226V20.3793H14.8732ZM14.372 20.3793V20.7552H14.1215V20.3793H14.372ZM13.8709 20.3793V20.7552H13.6203V20.3793H13.8709ZM12.3674 20.3793V20.7552H12.1168V20.3793H12.3674ZM13.3697 20.3793V20.7552H13.1191V20.3793H13.3697ZM12.8686 20.3793V20.7552H12.618V20.3793H12.8686ZM12.8686 21.1311V21.5069H12.618V21.1311H12.8686ZM13.3697 21.1311V21.5069H13.1191V21.1311H13.3697ZM12.3674 21.1311V21.5069H12.1168V21.1311H12.3674ZM13.8709 21.1311V21.5069H13.6203V21.1311H13.8709ZM14.372 21.1311V21.5069H14.1215V21.1311H14.372ZM14.8732 21.1311V21.5069H14.6226V21.1311H14.8732ZM14.372 21.8828V22.2587H14.1215V21.8828H14.372ZM13.3697 21.8828V22.2587H13.1191V21.8828H13.3697ZM12.8686 21.8828V22.2587H12.618V21.8828H12.8686ZM14.8732 21.8828V22.2587H14.6226V21.8828H14.8732ZM13.8709 21.8828V22.2587H13.6203V21.8828H13.8709ZM12.3674 21.8828V22.2587H12.1168V21.8828H12.3674Z" fill="#FFB86C"/>
    <path d="M17.8782 14.7412V18.4999H14.8713V14.7412H17.8782Z" fill="#FFB86C"/>
    <path d="M20.3821 15.1171V15.493H20.1315V15.1171H20.3821ZM19.8809 15.1171V15.493H19.6304V15.1171H19.8809ZM19.3798 15.1171V15.493H19.1292V15.1171H19.3798ZM18.8786 15.1171V15.493H18.628V15.1171H18.8786ZM18.3775 15.1171V15.493H18.1269V15.1171H18.3775ZM20.8833 15.1171V15.493H20.6327V15.1171H20.8833ZM20.8833 15.8688V16.2447H20.6327V15.8688H20.8833ZM20.3821 15.8688V16.2447H20.1315V15.8688H20.3821ZM19.8809 15.8688V16.2447H19.6304V15.8688H19.8809ZM19.3798 15.8688V16.2447H19.1292V15.8688H19.3798ZM18.8786 15.8688V16.2447H18.628V15.8688H18.8786ZM18.3775 15.8688V16.2447H18.1269V15.8688H18.3775ZM20.8833 16.6206V16.9965H20.6327V16.6206H20.8833ZM20.3821 16.6206V16.9965H20.1315V16.6206H20.3821ZM19.8809 16.6206V16.9965H19.6304V16.6206H19.8809ZM18.3775 16.6206V16.9965H18.1269V16.6206H18.3775ZM19.3798 16.6206V16.9965H19.1292V16.6206H19.3798ZM18.8786 16.6206V16.9965H18.628V16.6206H18.8786ZM18.8786 17.3723V17.7482H18.628V17.3723H18.8786ZM18.3775 17.3723V17.7482H18.1269V17.3723H18.3775ZM19.3798 17.3723V17.7482H19.1292V17.3723H19.3798ZM19.8809 17.3723V17.7482H19.6304V17.3723H19.8809ZM20.3821 17.3723V17.7482H20.1315V17.3723H20.3821ZM20.8833 17.3723V17.7482H20.6327V17.3723H20.8833ZM20.3821 18.1241V18.4999H20.1315V18.1241H20.3821ZM18.3775 18.1241V18.4999H18.1269V18.1241H18.3775ZM18.8786 18.1241V18.4999H18.628V18.1241H18.8786ZM20.8833 18.1241V18.4999H20.6327V18.1241H20.8833ZM19.3798 18.1241V18.4999H19.1292V18.1241H19.3798ZM19.8809 18.1241V18.4999H19.6304V18.1241H19.8809ZM18.8786 18.8758V19.2517H18.628V18.8758H18.8786ZM19.3798 18.8758V19.2517H19.1292V18.8758H19.3798ZM20.8833 18.8758V19.2517H20.6327V18.8758H20.8833ZM18.3775 18.8758V19.2517H18.1269V18.8758H18.3775ZM19.8809 18.8758V19.2517H19.6304V18.8758H19.8809ZM20.3821 18.8758V19.2517H20.1315V18.8758H20.3821ZM20.8833 19.6276V20.0034H20.6327V19.6276H20.8833ZM20.3821 19.6276V20.0034H20.1315V19.6276H20.3821ZM19.8809 19.6276V20.0034H19.6304V19.6276H19.8809ZM19.3798 19.6276V20.0034H19.1292V19.6276H19.3798ZM18.8786 19.6276V20.0034H18.628V19.6276H18.8786ZM18.3775 19.6276V20.0034H18.1269V19.6276H18.3775ZM20.8833 20.3793V20.7552H20.6327V20.3793H20.8833ZM20.3821 20.3793V20.7552H20.1315V20.3793H20.3821ZM19.8809 20.3793V20.7552H19.6304V20.3793H19.8809ZM18.3775 20.3793V20.7552H18.1269V20.3793H18.3775ZM19.3798 20.3793V20.7552H19.1292V20.3793H19.3798ZM18.8786 20.3793V20.7552H18.628V20.3793H18.8786ZM18.8786 21.1311V21.5069H18.628V21.1311H18.8786ZM19.3798 21.1311V21.5069H19.1292V21.1311H19.3798ZM18.3775 21.1311V21.5069H18.1269V21.1311H18.3775ZM19.8809 21.1311V21.5069H19.6304V21.1311H19.8809ZM20.3821 21.1311V21.5069H20.1315V21.1311H20.3821ZM20.8833 21.1311V21.5069H20.6327V21.1311H20.8833ZM20.3821 21.8828V22.2587H20.1315V21.8828H20.3821ZM19.3798 21.8828V22.2587H19.1292V21.8828H19.3798ZM18.8786 21.8828V22.2587H18.628V21.8828H18.8786ZM20.8833 21.8828V22.2587H20.6327V21.8828H20.8833ZM19.8809 21.8828V22.2587H19.6304V21.8828H19.8809ZM18.3775 21.8828V22.2587H18.1269V21.8828H18.3775Z" fill="#FFB86C"/>
    <path d="M23.3871 15.1171V15.493H23.1366V15.1171H23.3871ZM22.886 15.1171V15.493H22.6354V15.1171H22.886ZM22.3848 15.1171V15.493H22.1342V15.1171H22.3848ZM21.8837 15.1171V15.493H21.6331V15.1171H21.8837ZM21.3825 15.1171V15.493H21.1319V15.1171H21.3825ZM23.8883 15.1171V15.493H23.6377V15.1171H23.8883ZM23.8883 15.8688V16.2447H23.6377V15.8688H23.8883ZM23.3871 15.8688V16.2447H23.1366V15.8688H23.3871ZM22.886 15.8688V16.2447H22.6354V15.8688H22.886ZM22.3848 15.8688V16.2447H22.1342V15.8688H22.3848ZM21.8837 15.8688V16.2447H21.6331V15.8688H21.8837ZM21.3825 15.8688V16.2447H21.1319V15.8688H21.3825ZM23.8883 16.6206V16.9965H23.6377V16.6206H23.8883ZM23.3871 16.6206V16.9965H23.1366V16.6206H23.3871ZM22.886 16.6206V16.9965H22.6354V16.6206H22.886ZM21.3825 16.6206V16.9965H21.1319V16.6206H21.3825ZM22.3848 16.6206V16.9965H22.1342V16.6206H22.3848ZM21.8837 16.6206V16.9965H21.6331V16.6206H21.8837ZM21.8837 17.3723V17.7482H21.6331V17.3723H21.8837ZM21.3825 17.3723V17.7482H21.1319V17.3723H21.3825ZM22.3848 17.3723V17.7482H22.1342V17.3723H22.3848ZM22.886 17.3723V17.7482H22.6354V17.3723H22.886ZM23.3871 17.3723V17.7482H23.1366V17.3723H23.3871ZM23.8883 17.3723V17.7482H23.6377V17.3723H23.8883ZM23.3871 18.1241V18.4999H23.1366V18.1241H23.3871ZM21.3825 18.1241V18.4999H21.1319V18.1241H21.3825ZM21.8837 18.1241V18.4999H21.6331V18.1241H21.8837ZM23.8883 18.1241V18.4999H23.6377V18.1241H23.8883ZM22.3848 18.1241V18.4999H22.1342V18.1241H22.3848ZM22.886 18.1241V18.4999H22.6354V18.1241H22.886ZM21.8837 18.8758V19.2517H21.6331V18.8758H21.8837ZM22.3848 18.8758V19.2517H22.1342V18.8758H22.3848ZM23.8883 18.8758V19.2517H23.6377V18.8758H23.8883ZM21.3825 18.8758V19.2517H21.1319V18.8758H21.3825ZM22.886 18.8758V19.2517H22.6354V18.8758H22.886ZM23.3871 18.8758V19.2517H23.1366V18.8758H23.3871ZM23.8883 19.6276V20.0034H23.6377V19.6276H23.8883ZM23.3871 19.6276V20.0034H23.1366V19.6276H23.3871ZM22.886 19.6276V20.0034H22.6354V19.6276H22.886ZM22.3848 19.6276V20.0034H22.1342V19.6276H22.3848ZM21.8837 19.6276V20.0034H21.6331V19.6276H21.8837ZM21.3825 19.6276V20.0034H21.1319V19.6276H21.3825ZM23.8883 20.3793V20.7552H23.6377V20.3793H23.8883ZM23.3871 20.3793V20.7552H23.1366V20.3793H23.3871ZM22.886 20.3793V20.7552H22.6354V20.3793H22.886ZM21.3825 20.3793V20.7552H21.1319V20.3793H21.3825ZM22.3848 20.3793V20.7552H22.1342V20.3793H22.3848ZM21.8837 20.3793V20.7552H21.6331V20.3793H21.8837ZM21.8837 21.1311V21.5069H21.6331V21.1311H21.8837ZM22.3848 21.1311V21.5069H22.1342V21.1311H22.3848ZM21.3825 21.1311V21.5069H21.1319V21.1311H21.3825ZM22.886 21.1311V21.5069H22.6354V21.1311H22.886ZM23.3871 21.1311V21.5069H23.1366V21.1311H23.3871ZM23.8883 21.1311V21.5069H23.6377V21.1311H23.8883ZM23.3871 21.8828V22.2587H23.1366V21.8828H23.3871ZM22.3848 21.8828V22.2587H22.1342V21.8828H22.3848ZM21.8837 21.8828V22.2587H21.6331V21.8828H21.8837ZM23.8883 21.8828V22.2587H23.6377V21.8828H23.8883ZM22.886 21.8828V22.2587H22.6354V21.8828H22.886ZM21.3825 21.8828V22.2587H21.1319V21.8828H21.3825Z" fill="#FFB86C"/>
    <path d="M26.8933 14.7412V18.4999H23.8864V14.7412H26.8933Z" fill="#FFB86C"/>
    <path d="M29.8984 14.7412V18.4999H26.8914V14.7412H29.8984Z" fill="#FFB86C"/>
    <path d="M32.4022 15.1171V15.493H32.1517V15.1171H32.4022ZM31.9011 15.1171V15.493H31.6505V15.1171H31.9011ZM31.3999 15.1171V15.493H31.1493V15.1171H31.3999ZM30.8987 15.1171V15.493H30.6482V15.1171H30.8987ZM30.3976 15.1171V15.493H30.147V15.1171H30.3976ZM32.9034 15.1171V15.493H32.6528V15.1171H32.9034ZM32.9034 15.8688V16.2447H32.6528V15.8688H32.9034ZM32.4022 15.8688V16.2447H32.1517V15.8688H32.4022ZM31.9011 15.8688V16.2447H31.6505V15.8688H31.9011ZM31.3999 15.8688V16.2447H31.1493V15.8688H31.3999ZM30.8987 15.8688V16.2447H30.6482V15.8688H30.8987ZM30.3976 15.8688V16.2447H30.147V15.8688H30.3976ZM32.9034 16.6206V16.9965H32.6528V16.6206H32.9034ZM32.4022 16.6206V16.9965H32.1517V16.6206H32.4022ZM31.9011 16.6206V16.9965H31.6505V16.6206H31.9011ZM30.3976 16.6206V16.9965H30.147V16.6206H30.3976ZM31.3999 16.6206V16.9965H31.1493V16.6206H31.3999ZM30.8987 16.6206V16.9965H30.6482V16.6206H30.8987ZM30.8987 17.3723V17.7482H30.6482V17.3723H30.8987ZM30.3976 17.3723V17.7482H30.147V17.3723H30.3976ZM31.3999 17.3723V17.7482H31.1493V17.3723H31.3999ZM31.9011 17.3723V17.7482H31.6505V17.3723H31.9011ZM32.4022 17.3723V17.7482H32.1517V17.3723H32.4022ZM32.9034 17.3723V17.7482H32.6528V17.3723H32.9034ZM32.4022 18.1241V18.4999H32.1517V18.1241H32.4022ZM30.3976 18.1241V18.4999H30.147V18.1241H30.3976ZM30.8987 18.1241V18.4999H30.6482V18.1241H30.8987ZM32.9034 18.1241V18.4999H32.6528V18.1241H32.9034ZM31.3999 18.1241V18.4999H31.1493V18.1241H31.3999ZM31.9011 18.1241V18.4999H31.6505V18.1241H31.9011ZM30.8987 18.8758V19.2517H30.6482V18.8758H30.8987ZM31.3999 18.8758V19.2517H31.1493V18.8758H31.3999ZM32.9034 18.8758V19.2517H32.6528V18.8758H32.9034ZM30.3976 18.8758V19.2517H30.147V18.8758H30.3976ZM31.9011 18.8758V19.2517H31.6505V18.8758H31.9011ZM32.4022 18.8758V19.2517H32.1517V18.8758H32.4022ZM32.9034 19.6276V20.0034H32.6528V19.6276H32.9034ZM32.4022 19.6276V20.0034H32.1517V19.6276H32.4022ZM31.9011 19.6276V20.0034H31.6505V19.6276H31.9011ZM31.3999 19.6276V20.0034H31.1493V19.6276H31.3999ZM30.8987 19.6276V20.0034H30.6482V19.6276H30.8987ZM30.3976 19.6276V20.0034H30.147V19.6276H30.3976ZM32.9034 20.3793V20.7552H32.6528V20.3793H32.9034ZM32.4022 20.3793V20.7552H32.1517V20.3793H32.4022ZM31.9011 20.3793V20.7552H31.6505V20.3793H31.9011ZM30.3976 20.3793V20.7552H30.147V20.3793H30.3976ZM31.3999 20.3793V20.7552H31.1493V20.3793H31.3999ZM30.8987 20.3793V20.7552H30.6482V20.3793H30.8987ZM30.8987 21.1311V21.5069H30.6482V21.1311H30.8987ZM31.3999 21.1311V21.5069H31.1493V21.1311H31.3999ZM30.3976 21.1311V21.5069H30.147V21.1311H30.3976ZM31.9011 21.1311V21.5069H31.6505V21.1311H31.9011ZM32.4022 21.1311V21.5069H32.1517V21.1311H32.4022ZM32.9034 21.1311V21.5069H32.6528V21.1311H32.9034ZM32.4022 21.8828V22.2587H32.1517V21.8828H32.4022ZM31.3999 21.8828V22.2587H31.1493V21.8828H31.3999ZM30.8987 21.8828V22.2587H30.6482V21.8828H30.8987ZM32.9034 21.8828V22.2587H32.6528V21.8828H32.9034ZM31.9011 21.8828V22.2587H31.6505V21.8828H31.9011ZM30.3976 21.8828V22.2587H30.147V21.8828H30.3976Z" fill="#FFB86C"/>
</svg>
