<svg width="24" height="24" viewBox="0 0 14 14" fill="none" xmlns="http://www.w3.org/2000/svg">
    <g clip-path="url(#clip0)">
        <path d="M7.43744 5.24994H6.56244L6.56288 8.0561L8.44019 9.93386L9.05885 9.31521L7.43788 7.6938L7.43744 5.24994Z" fill="#6272A4"/>
        <path d="M13.125 4.01271L10.8623 1.75001L10.0445 2.56775C9.26589 2.11926 8.38107 1.83919 7.43652 1.77211L7.43715 0.875004H8.74997V0H5.24999V0.875004H6.56218L6.56155 1.77221C5.61776 1.83954 4.73356 2.11955 3.95545 2.56775L3.13771 1.75001L0.875 4.01271L1.69275 4.83046C1.1755 5.72849 0.875 6.76636 0.875 7.875C0.875 11.2524 3.62261 14 7 14C10.3774 14 13.125 11.2524 13.125 7.875C13.125 6.76636 12.8245 5.72846 12.3072 4.83046C12.3072 4.83046 13.125 4.01268 13.125 4.01271ZM7 13.125C4.10499 13.125 1.75 10.77 1.75 7.87504C1.75 4.98003 4.10499 2.62504 7 2.62504C9.895 2.62504 12.25 4.98003 12.25 7.87504C12.25 10.77 9.895 13.125 7 13.125Z" fill="#6272A4"/>
    </g>
    <defs>
        <clipPath id="clip0">
            <rect width="14" height="14" fill="white"/>
        </clipPath>
    </defs>
</svg>
